<svg width="335" height="113" viewBox="0 0 335 113" fill="none" xmlns="http://www.w3.org/2000/svg">
<g clip-path="url(#clip0_1_46)">
<path d="M47.2577 98.067C48.8731 98.112 50.4815 97.8842 51.6679 98.6485C51.9905 101.516 52.2703 108.196 51.7548 110.937C50.3636 111.684 48.7942 111.541 47.1887 111.564C48.1947 111.017 48.467 110.915 49.2867 110.136C49.6843 105.535 49.3196 102.256 47.2577 98.067Z" fill="#D83F3B"/>
<path d="M141.6 33.1512C148.511 32.7436 174.817 32.5896 180.108 34.117C186.138 35.8378 191.228 39.9006 194.241 45.3992C197.617 51.6001 198.297 60.4454 196.098 67.1473C193.711 74.4202 190.237 77.3479 183.917 80.6082C188.112 89.9994 195.018 101.562 199.729 111.553L183.249 111.473C178.358 102.896 173.659 92.1321 168.87 83.1004C164.641 82.8422 161.076 82.8068 156.832 82.8367L156.739 111.525L141.465 111.514C141.688 85.3932 141.733 59.272 141.6 33.1512ZM181.359 56.5936C180.609 43.7741 165.914 46.0932 156.937 46.1317C156.825 54.1207 156.813 62.1109 156.9 70.1004C163.79 70.2163 172.387 71.2788 177.981 67.3631C181.137 63.6438 181.644 61.4458 181.359 56.5936Z" fill="#0A2248"/>
<path d="M2.06966 33.071C14.9246 32.3138 38.8179 32.6699 51.995 32.9711C52.2937 36.9557 52.2348 41.9848 52.2917 46.0558C41.0267 46.3735 28.3975 46.1073 17.0306 46.1083C16.9741 52.7353 16.9432 58.8618 17.2299 65.4804C27.414 65.1527 38.6805 65.2896 48.969 65.2101L49.2072 78.707L16.9232 78.7229C16.9377 85.2056 17.0381 91.6878 17.2239 98.1679C27.2346 98.0805 37.2464 98.0471 47.2576 98.0671C48.873 98.112 50.4815 97.8842 51.6678 98.6485C51.9905 101.516 52.2702 108.196 51.7547 110.937C50.3636 111.684 48.7941 111.541 47.1887 111.564C32.1943 111.388 17.1989 111.365 2.20403 111.496C2.07116 109.22 2.08265 106.837 2.05568 104.549C1.77345 80.7679 2.68756 56.8358 2.06966 33.071Z" fill="#EA3634"/>
<path d="M281.679 31.6399C287.184 31.4811 290.698 31.6679 296.062 32.7908C296.237 46.9225 296.58 62.1521 296.231 76.2059C301.914 70.7492 309.567 59.6271 315.843 53.084L333.157 53.2128C326.208 61.6031 319.407 70.1023 312.052 78.133C315.291 83.9498 322.814 94.4586 326.763 100.361C329.406 104.145 331.642 107.612 334.088 111.524L317.088 111.626C311.828 103.397 306.39 95.2827 300.776 87.2905C298.883 89.5923 297.605 91.0539 296.111 93.6608L296.118 111.589L281.61 111.547C281.685 94.555 281.659 77.5626 281.531 60.5702C281.501 51.3576 281.244 40.767 281.679 31.6399Z" fill="#0A2248"/>
<path d="M243.27 52.3277C258.943 50.8661 269.684 52.529 274.174 69.409C269.944 70.3026 265.364 70.471 261.059 70.6483C258.024 64.3659 250.208 60.3778 243.663 65.9779C241.287 68.0104 242.961 72.8721 246.526 74.3672C255.318 78.1814 272.933 77.2793 274.934 89.7347C277.212 103.913 268.026 110.788 255.781 113.04C240.47 114.148 229.581 111.093 226.58 94.1613C230.824 93.8646 236.032 93.8451 240.357 93.7083C243.268 101.928 253.029 105.27 259.502 98.0476C260.141 97.3352 260.482 94.1698 259.935 93.4096C255.262 86.9654 243.605 88.5733 236.882 84.5847C221.271 75.3227 226.362 57.4012 243.27 52.3277Z" fill="#0A2248"/>
<path d="M61.9238 52.9146C74.5275 52.2833 93.1204 53.0915 106.322 53.1469C106.367 56.5191 106.323 59.9733 106.32 63.3535C105.562 64.6427 104.715 65.841 103.796 67.0189C95.6255 77.4906 87.7247 88.1777 79.5057 98.611C88.6003 98.6195 97.6955 98.5691 106.79 98.4602C107.04 101.742 107.697 108.192 106.655 111.264L105.856 111.567C90.6923 111.388 75.5276 111.382 60.3644 111.549C60.2854 108.202 60.4088 104.626 60.4713 101.259C68.5434 89.4065 81.0482 77.2798 88.2247 65.6752L61.3988 65.6572C61.287 62.8824 60.5677 54.9417 61.9238 52.9146Z" fill="#EA3634"/>
<path d="M85.8146 3.27003C89.3436 3.26104 95.076 3.23906 98.169 3.1991C124.857 2.85094 132.272 0.209022 130.732 31.6009C130.509 36.1504 131.141 43.3509 130.275 48.7876C129.821 49.4145 129.809 49.7476 129.001 49.7511C113.57 49.8171 117.656 36.2418 116.748 27.2381C115.448 28.4225 113.928 30.0669 112.673 31.3516C108.106 35.9601 98.7705 46.4454 93.6704 48.9419C84.5079 44.0113 84.2191 39.4067 91.8352 32.3526C96.9712 27.5953 102.518 22.5202 107.032 17.1884C102.083 17.3523 96.9008 17.2734 91.9316 17.2699C88.5279 14.2548 82.8889 7.82558 85.8146 3.27003Z" fill="#EA3634"/>
<path d="M205.236 53.2383L220.165 53.2428C220.583 72.2882 220.264 92.4785 220.175 111.574C215.358 111.43 210.106 111.542 205.257 111.55L205.236 53.2383Z" fill="#0A2248"/>
<path d="M116.461 53.3067C120.735 53.0055 126.384 53.1684 130.76 53.1739L130.953 90.1153C130.969 95.6274 131.184 106.216 130.609 111.313C126.541 111.66 120.525 111.517 116.311 111.541C116.279 93.7787 115.572 70.5244 116.461 53.3067Z" fill="#EA3634"/>
<path d="M211.38 29.9935C215.756 29.1708 219.977 32.033 220.832 36.4038C221.686 40.7745 218.854 45.0159 214.49 45.902C210.08 46.7971 205.786 43.9294 204.923 39.5137C204.06 35.0985 206.958 30.8247 211.38 29.9935Z" fill="#0A2248"/>
</g>
<defs>
<clipPath id="clip0_1_46">
<rect width="335" height="113" fill="white"/>
</clipPath>
</defs>
</svg>
